<svg xmlns="http://www.w3.org/2000/svg" viewBox="0 0 120 120" fill="none">
  <circle cx="60" cy="60" r="58" fill="#000000"/>
  <defs>
    <linearGradient id="emblemGrad" x1="60" y1="22" x2="60" y2="98" gradientUnits="userSpaceOnUse">
      <stop offset="0%" stop-color="#FFFFFF"/>
      <stop offset="100%" stop-color="#A8A8A8"/>
    </linearGradient>
  </defs>
  <g fill="url(#emblemGrad)">
    <!-- Left chevron wing -->
    <path d="M24 60 C24 38 36 26 52 26 L58 32 C46 36 38 46 38 60 C38 74 46 84 58 88 L52 94 C36 94 24 82 24 60Z"/>
    <!-- Right chevron wing -->
    <path d="M96 60 C96 82 84 94 68 94 L62 88 C74 84 82 74 82 60 C82 46 74 36 62 32 L68 26 C84 26 96 38 96 60Z"/>
  </g>
</svg>
